<?xml version="1.0" encoding="UTF-8"?>
<svg width="40" height="40" viewBox="0 0 40 40" fill="none" xmlns="http://www.w3.org/2000/svg">
  <!-- Background shape with rounded corners -->
  <rect x="1" y="1" width="38" height="38" rx="8" fill="#2979C2"/>
  
  <!-- White "Z" letter with modern style -->
  <path d="M27 10H13V15H20L13 30H27V25H20L27 10Z" fill="white"/>
  
  <!-- Decorative elements suggesting speed/efficiency -->
  <path d="M32 18C32 16.8954 32.8954 16 34 16C35.1046 16 36 16.8954 36 18C36 19.1046 35.1046 20 34 20C32.8954 20 32 19.1046 32 18Z" fill="#FFD54F"/>
  <path d="M30 24C30 22.8954 30.8954 22 32 22C33.1046 22 34 22.8954 34 24C34 25.1046 33.1046 26 32 26C30.8954 26 30 25.1046 30 24Z" fill="#FFD54F"/>
  <path d="M27 30C27 28.8954 27.8954 28 29 28C30.1046 28 31 28.8954 31 30C31 31.1046 30.1046 32 29 32C27.8954 32 27 31.1046 27 30Z" fill="#FFD54F"/>
</svg>