<?xml version="1.0" encoding="UTF-8"?>
<svg width="13" height="13" viewBox="0 0 13 13" fill="none" xmlns="http://www.w3.org/2000/svg">
  <!-- Chat bubble with AI enhancement - line-based -->
  <path d="M11.5 3.5C11.5 2.39543 10.6046 1.5 9.5 1.5H3.5C2.39543 1.5 1.5 2.39543 1.5 3.5V7.5C1.5 8.60457 2.39543 9.5 3.5 9.5H5.5L6.5 11.5L7.5 9.5H9.5C10.6046 9.5 11.5 8.60457 11.5 7.5V3.5Z" stroke="#AFB1B3" stroke-width="1" fill="none"/>
  <!-- AI-like network pattern inside -->
  <circle cx="4" cy="5" r="0.5" stroke="#AFB1B3" stroke-width="0.5" fill="none"/>
  <circle cx="6.5" cy="5" r="0.5" stroke="#AFB1B3" stroke-width="0.5" fill="none"/>
  <circle cx="9" cy="5" r="0.5" stroke="#AFB1B3" stroke-width="0.5" fill="none"/>
  <circle cx="5.25" cy="7" r="0.5" stroke="#AFB1B3" stroke-width="0.5" fill="none"/>
  <circle cx="7.75" cy="7" r="0.5" stroke="#AFB1B3" stroke-width="0.5" fill="none"/>
  <path d="M4 5L5.25 7M4 5L6.5 5M6.5 5L5.25 7M6.5 5L7.75 7M9 5L7.75 7" stroke="#AFB1B3" stroke-width="0.5"/>
</svg>